<?xml version="1.0" encoding="UTF-8" standalone="no"?>
<!-- Created with Inkscape (http://www.inkscape.org/) -->

<svg
   xmlns:dc="http://purl.org/dc/elements/1.1/"
   xmlns:cc="http://creativecommons.org/ns#"
   xmlns:rdf="http://www.w3.org/1999/02/22-rdf-syntax-ns#"
   xmlns:svg="http://www.w3.org/2000/svg"
   xmlns="http://www.w3.org/2000/svg"
   xmlns:sodipodi="http://sodipodi.sourceforge.net/DTD/sodipodi-0.dtd"
   xmlns:inkscape="http://www.inkscape.org/namespaces/inkscape"
   width="660.39972"
   height="105.05315"
   id="svg2"
   version="1.1"
   inkscape:version="0.48.4 r9939"
   sodipodi:docname="fosdem-wordmark.svg">
  <defs
     id="defs4" />
  <sodipodi:namedview
     id="base"
     pagecolor="#ffffff"
     bordercolor="#666666"
     borderopacity="1.0"
     inkscape:pageopacity="0.0"
     inkscape:pageshadow="2"
     inkscape:zoom="1.979899"
     inkscape:cx="297.29098"
     inkscape:cy="-74.569131"
     inkscape:document-units="px"
     inkscape:current-layer="layer1"
     showgrid="false"
     inkscape:window-width="1920"
     inkscape:window-height="1056"
     inkscape:window-x="0"
     inkscape:window-y="24"
     inkscape:window-maximized="1"
     fit-margin-top="0"
     fit-margin-left="0"
     fit-margin-right="0"
     fit-margin-bottom="0" />
  <metadata
     id="metadata7">
    <rdf:RDF>
      <cc:Work
         rdf:about="">
        <dc:format>image/svg+xml</dc:format>
        <dc:type
           rdf:resource="http://purl.org/dc/dcmitype/StillImage" />
        <dc:title></dc:title>
      </cc:Work>
    </rdf:RDF>
  </metadata>
  <g
     inkscape:label="Layer 1"
     inkscape:groupmode="layer"
     id="layer1"
     transform="translate(-57.45066,-44.21947)">
    <g
       id="g3002"
       transform="matrix(0.3289326,0,0,0.3289326,-11.507484,-20.734693)">
      <path
         style="fill:#96337e"
         d="m 1907.4103,258.91037 c 3.0344,-10.00011 5.5358,-26.36393 5.5586,-36.36404 l 0.041,-18.18202 19.139,0 19.1389,0 0,17.16757 c 0,12.48195 -3.2238,22.40694 -11.8116,36.36404 -10.4004,16.9027 -13.3515,19.19647 -24.6976,19.19647 l -12.8859,0 5.5172,-18.18202 z"
         id="path3006"
         inkscape:connector-curvature="0"
         sodipodi:nodetypes="cccccsssccc" />
      <path
         style="fill:#211d1f"
         d="m 522.43989,514.30537 c -65.30973,-16.46254 -96.07337,-66.55182 -96.32076,-156.82931 -0.13741,-50.18425 6.52857,-78.50767 25.48844,-108.29748 41.6619,-65.45932 153.27105,-69.65057 200.64823,-7.53493 39.34451,51.58414 43.30394,160.5611 7.97226,219.42445 -13.89952,23.15693 -38.14044,43.39559 -59.29069,49.50157 -20.7696,5.99608 -61.78617,7.94807 -78.49748,3.7357 z m 9.69389,-130.08564 c 11.83389,-12.98827 13.26139,-25.66284 4.74512,-42.13146 -6.97427,-13.48676 -16.4793,-19.06235 -32.49662,-19.06235 -16.21178,0 -25.53387,5.59784 -32.83539,19.71745 -10.34802,20.01085 -0.17302,45.8761 21.35201,54.27717 11.1824,4.36443 28.84602,-1.39852 39.23488,-12.80081 z m 90.98673,9.58075 c 33.73396,-17.44452 21.37746,-70.77456 -16.39838,-70.77456 -39.54605,0 -51.40869,52.75856 -16.2145,72.11302 10.56402,5.8095 19.4994,5.44279 32.61288,-1.33846 z m 157.92508,118.89916 c -13.10017,-2.97871 -34.37539,-10.15353 -47.27823,-15.94398 -23.17958,-10.40238 -23.43413,-10.68621 -21.3117,-23.7652 1.18145,-7.28039 6.52895,-19.85701 11.88335,-27.94803 l 9.73523,-14.71095 12.42815,7.65563 c 17.88981,11.01994 58.29527,22.83938 78.07784,22.83938 31.2575,0 46.82188,-29.373 27.17431,-51.28317 -4.73689,-5.28239 -27.53864,-17.79983 -50.67057,-27.81654 -64.77717,-28.05015 -86.511,-55.28362 -81.04882,-101.55775 3.82401,-32.39585 21.99527,-56.26051 54.92367,-72.13226 32.3369,-15.58663 89.99503,-11.88823 139.72603,8.96251 14.02783,5.88146 14.09837,6.0243 10.15448,20.56752 -2.18429,8.05472 -7.26247,20.03744 -11.28487,26.62829 l -7.31338,11.98335 -23.35077,-9.43177 c -28.56713,-11.53878 -60.2941,-15.34537 -75.47834,-9.05586 -14.2214,5.8907 -21.08265,19.99468 -15.59072,32.04821 5.05043,11.0845 11.04085,14.78319 54.40351,33.59059 46.33866,20.09818 62.36743,31.74481 75.71502,55.01515 21.13857,36.85318 12.86093,87.03673 -18.63936,113.00192 -27.47258,22.64523 -77.86429,31.44663 -122.25483,21.35296 z m -560.87699,-1.02569 -10.52643,-1.59462 0,-152.85752 0,-152.8575 95.19401,0 95.19401,0 2.04083,12.57634 c 2.84367,17.52345 -0.51449,31.69584 -9.42009,39.75528 -6.32554,5.72454 -16.36787,7.09764 -60.84223,8.31902 l -53.26624,1.46283 0,32.10186 0,32.10186 47.51096,0 47.51096,0 2.50957,14.854 c 1.38027,8.16971 1.33997,21.08851 -0.0895,28.70846 l -2.59912,13.85445 -47.42142,0 -47.42142,0 0,60.76623 0,60.76622 -11.96186,2.39237 c -12.45689,2.4914 -28.45486,2.37098 -46.412,-0.34947 z m 794.2672,0.15388 -31.57933,-1.54961 0,-152.42379 0,-152.42377 20.09593,-2.4138 c 37.0437,-4.44946 102.0911,-2.64068 129.5385,3.60209 34.1343,7.76369 54.3415,22.94155 70.8926,53.24837 19.244,35.23762 25.6095,91.40896 16.6299,146.74708 -8.0549,49.63942 -35.7869,86.85334 -73.1645,98.18031 -21.6583,6.56337 -79.4415,9.63253 -132.4131,7.03312 z m 107.1406,-61.17356 c 5.7689,-2.91319 14.3814,-12.58187 19.139,-21.48596 7.8396,-14.67226 8.6501,-21.39002 8.6501,-71.69225 0,-50.30222 -0.8105,-57.01999 -8.6501,-71.69225 -11.2907,-21.13131 -23.0952,-26.68846 -60.2502,-28.36364 l -30.6223,-1.38064 -1.0246,97.54285 c -0.5635,53.64856 -0.235,99.60052 0.7301,102.11545 2.339,6.0953 57.6381,2.22314 72.028,-5.04356 z m 407.6976,61.23484 c -5.7895,-0.99538 -10.4983,-3.8485 -10.464,-6.34028 0.2722,-19.75287 23.1094,-298.83775 24.5732,-300.30154 3.4753,-3.47526 54.8359,-5.71681 72.0029,-3.14245 l 16.9746,2.5455 15.7932,67.80032 c 8.6863,37.29018 17.9241,80.28851 20.5285,95.55183 2.6044,15.26333 6.1071,27.75151 7.7839,27.75151 1.6767,0 3.0486,-0.62438 3.0486,-1.38751 0,-12.78489 40.3728,-185.71736 44.2666,-189.61117 2.7649,-2.7649 84.489,-3.1323 86.9786,-0.39101 2.1154,2.32926 25.2289,303.71848 23.4475,305.74487 -2.2157,2.52053 -58.2037,2.49064 -60.7563,-0.0306 -2.484,-2.45507 -7.0212,-69.12963 -11.7976,-173.364 -1.4397,-31.42004 -3.8785,-54.67389 -5.4194,-51.67522 -1.541,2.99867 -11.961,44.57548 -23.1557,92.3929 l -20.354,86.94078 -16.9033,2.5348 c -19.3348,2.89944 -51.1744,-0.56215 -54.4881,-5.92389 -1.2282,-1.98724 -11.5125,-43.31417 -22.854,-91.83757 -11.3415,-48.5252 -22.057,-88.22617 -23.8122,-88.22617 -1.7553,0 -3.1913,17.44398 -3.1913,38.7644 0,38.73431 -7.5191,187.92803 -9.5847,190.18126 -2.0907,2.28049 -42.1593,3.82125 -52.617,2.02326 z m -237.6819,-5.63639 c -16.4342,-9.55302 -17.8233,-22.48155 -17.8233,-165.87879 l 0,-136.00962 95.2853,0 c 83.3566,0 95.5762,0.75799 97.6087,6.05475 2.9918,7.79652 2.963,24.24045 -0.069,39.4003 l -2.3924,11.96186 -60.7662,0 -60.7662,0 0,32.42188 0,32.42188 48.8043,1.07132 48.8044,1.07131 1.1246,27.7515 1.1247,27.75151 -49.929,0 -49.929,0 0,34.45014 0,34.45015 66.9864,0 66.9863,0 0,13.64891 c 0,15.96791 -5.3304,27.7615 -16.7161,36.98422 -7.1307,5.77618 -17.8577,6.60957 -84.7204,6.58228 -47.4528,-0.0191 -79.2387,-1.59083 -83.6132,-4.1336 z"
         id="path3004"
         inkscape:connector-curvature="0" />
    </g>
    <g
       id="g2996"
       transform="translate(0,131.31983)" />
    <g
       transform="matrix(1.9697622,0,0,1.9697622,81.438882,-367.98499)"
       style="font-size:40px;font-style:normal;font-variant:normal;font-weight:bold;font-stretch:normal;line-height:125%;letter-spacing:-0.11319887px;word-spacing:0px;fill:#96337e;fill-opacity:1;stroke:none;font-family:DejaVu Sans Mono;-inkscape-font-specification:DejaVu Sans Mono Bold"
       id="flowRoot3008">
      <path
         d="m 282.95312,234.29184 6.44532,0 0,-18.92578 -5.9961,1.48438 0,-5.19532 6.03516,-1.44531 5.56641,0 0,24.08203 6.44531,0 0,5.07813 -18.4961,0 0,-5.07813"
         style="letter-spacing:-2.53837752px;fill:#96337e;font-family:DejaVu Sans Mono;-inkscape-font-specification:DejaVu Sans Mono Bold"
         id="path2999" />
      <path
         d="m 314.36006,216.61606 -7.36328,11.52344 7.36328,0 0,-11.52344 m -0.50781,-6.40625 6.03515,0 0,17.92969 3.20313,0 0,4.9414 -3.20313,0 0,6.28907 -5.52734,0 0,-6.28907 -11.5625,0 0,-5.58593 11.05469,-17.28516"
         style="letter-spacing:-2.53837752px;fill:#96337e;font-family:DejaVu Sans Mono;-inkscape-font-specification:DejaVu Sans Mono Bold"
         id="path3001" />
    </g>
  </g>
</svg>
